<svg id="visual" viewBox="0 0 900 600" width="900" height="600" xmlns="http://www.w3.org/2000/svg" xmlns:xlink="http://www.w3.org/1999/xlink" version="1.1"><path d="M0 109L21.5 106.5C43 104 86 99 128.8 103.5C171.7 108 214.3 122 257.2 122.8C300 123.7 343 111.3 385.8 111C428.7 110.7 471.3 122.3 514.2 128.8C557 135.3 600 136.7 642.8 138.7C685.7 140.7 728.3 143.3 771.2 142.5C814 141.7 857 137.3 878.5 135.2L900 133L900 0L878.5 0C857 0 814 0 771.2 0C728.3 0 685.7 0 642.8 0C600 0 557 0 514.2 0C471.3 0 428.7 0 385.8 0C343 0 300 0 257.2 0C214.3 0 171.7 0 128.8 0C86 0 43 0 21.5 0L0 0Z" fill="#222831"></path><path d="M0 92L21.5 91.8C43 91.7 86 91.3 128.8 94.7C171.7 98 214.3 105 257.2 104.8C300 104.7 343 97.3 385.8 94.8C428.7 92.3 471.3 94.7 514.2 96.7C557 98.7 600 100.3 642.8 103.2C685.7 106 728.3 110 771.2 110.8C814 111.7 857 109.3 878.5 108.2L900 107L900 0L878.5 0C857 0 814 0 771.2 0C728.3 0 685.7 0 642.8 0C600 0 557 0 514.2 0C471.3 0 428.7 0 385.8 0C343 0 300 0 257.2 0C214.3 0 171.7 0 128.8 0C86 0 43 0 21.5 0L0 0Z" fill="#272d36"></path><path d="M0 67L21.5 68.7C43 70.3 86 73.7 128.8 71.8C171.7 70 214.3 63 257.2 62.8C300 62.7 343 69.3 385.8 70.3C428.7 71.3 471.3 66.7 514.2 68.3C557 70 600 78 642.8 79.7C685.7 81.3 728.3 76.7 771.2 72.3C814 68 857 64 878.5 62L900 60L900 0L878.5 0C857 0 814 0 771.2 0C728.3 0 685.7 0 642.8 0C600 0 557 0 514.2 0C471.3 0 428.7 0 385.8 0C343 0 300 0 257.2 0C214.3 0 171.7 0 128.8 0C86 0 43 0 21.5 0L0 0Z" fill="#2d333b"></path><path d="M0 62L21.5 62C43 62 86 62 128.8 62.2C171.7 62.3 214.3 62.7 257.2 62C300 61.3 343 59.7 385.8 60.3C428.7 61 471.3 64 514.2 62.8C557 61.7 600 56.3 642.8 52.5C685.7 48.7 728.3 46.3 771.2 43.5C814 40.7 857 37.3 878.5 35.7L900 34L900 0L878.5 0C857 0 814 0 771.2 0C728.3 0 685.7 0 642.8 0C600 0 557 0 514.2 0C471.3 0 428.7 0 385.8 0C343 0 300 0 257.2 0C214.3 0 171.7 0 128.8 0C86 0 43 0 21.5 0L0 0Z" fill="#333840"></path><path d="M0 18L21.5 17.5C43 17 86 16 128.8 15.7C171.7 15.3 214.3 15.7 257.2 19.3C300 23 343 30 385.8 32.3C428.7 34.7 471.3 32.3 514.2 29.3C557 26.3 600 22.7 642.8 21.2C685.7 19.7 728.3 20.3 771.2 24.2C814 28 857 35 878.5 38.5L900 42L900 0L878.5 0C857 0 814 0 771.2 0C728.3 0 685.7 0 642.8 0C600 0 557 0 514.2 0C471.3 0 428.7 0 385.8 0C343 0 300 0 257.2 0C214.3 0 171.7 0 128.8 0C86 0 43 0 21.5 0L0 0Z" fill="#393e46"></path></svg>