<svg id="visual" viewBox="0 0 675 900" width="675" height="900" xmlns="http://www.w3.org/2000/svg" xmlns:xlink="http://www.w3.org/1999/xlink" version="1.1"><path d="M0 215L96 254L193 285L289 268L386 261L482 194L579 195L675 267L675 0L579 0L482 0L386 0L289 0L193 0L96 0L0 0Z" fill="#222831"></path><path d="M0 206L96 204L193 206L289 205L386 235L482 228L579 161L675 177L675 0L579 0L482 0L386 0L289 0L193 0L96 0L0 0Z" fill="#272d36"></path><path d="M0 147L96 116L193 114L289 158L386 141L482 114L579 122L675 169L675 0L579 0L482 0L386 0L289 0L193 0L96 0L0 0Z" fill="#2d333b"></path><path d="M0 88L96 74L193 106L289 72L386 112L482 101L579 123L675 99L675 0L579 0L482 0L386 0L289 0L193 0L96 0L0 0Z" fill="#333840"></path><path d="M0 38L96 86L193 37L289 45L386 32L482 77L579 74L675 68L675 0L579 0L482 0L386 0L289 0L193 0L96 0L0 0Z" fill="#393e46"></path></svg>