<svg id="visual" viewBox="0 0 900 675" width="900" height="675" xmlns="http://www.w3.org/2000/svg" xmlns:xlink="http://www.w3.org/1999/xlink" version="1.1">
    <path d="M0 570L21.5 568.8C43 567.7 86 565.3 128.8 566.5C171.7 567.7 214.3 572.3 257.2 574.3C300 576.3 343 575.7 385.8 573.3C428.7 571 471.3 567 514.2 564.8C557 562.7 600 562.3 642.8 568C685.7 573.7 728.3 585.3 771.2 589.5C814 593.7 857 590.3 878.5 588.7L900 587L900 676L878.5 676C857 676 814 676 771.2 676C728.3 676 685.7 676 642.8 676C600 676 557 676 514.2 676C471.3 676 428.7 676 385.8 676C343 676 300 676 257.2 676C214.3 676 171.7 676 128.8 676C86 676 43 676 21.5 676L0 676Z" fill="#00adb5"></path>
    <path d="M0 590L21.5 590.3C43 590.7 86 591.3 128.8 592.5C171.7 593.7 214.3 595.3 257.2 598C300 600.7 343 604.3 385.8 603.8C428.7 603.3 471.3 598.7 514.2 594.5C557 590.3 600 586.7 642.8 588.5C685.7 590.3 728.3 597.7 771.2 601.3C814 605 857 605 878.5 605L900 605L900 676L878.5 676C857 676 814 676 771.2 676C728.3 676 685.7 676 642.8 676C600 676 557 676 514.2 676C471.3 676 428.7 676 385.8 676C343 676 300 676 257.2 676C214.3 676 171.7 676 128.8 676C86 676 43 676 21.5 676L0 676Z" fill="#278fa2"></path>
    <path d="M0 619L21.5 618.8C43 618.7 86 618.3 128.8 620.5C171.7 622.7 214.3 627.3 257.2 630C300 632.7 343 633.3 385.8 628.7C428.7 624 471.3 614 514.2 612.5C557 611 600 618 642.8 622.3C685.7 626.7 728.3 628.3 771.2 628C814 627.7 857 625.3 878.5 624.2L900 623L900 676L878.5 676C857 676 814 676 771.2 676C728.3 676 685.7 676 642.8 676C600 676 557 676 514.2 676C471.3 676 428.7 676 385.8 676C343 676 300 676 257.2 676C214.3 676 171.7 676 128.8 676C86 676 43 676 21.5 676L0 676Z" fill="#3a7288"></path>
    <path d="M0 644L21.5 643.7C43 643.3 86 642.7 128.8 642.3C171.7 642 214.3 642 257.2 640.8C300 639.7 343 637.3 385.8 635.2C428.7 633 471.3 631 514.2 631.8C557 632.7 600 636.3 642.8 638.3C685.7 640.3 728.3 640.7 771.2 639C814 637.3 857 633.7 878.5 631.8L900 630L900 676L878.5 676C857 676 814 676 771.2 676C728.3 676 685.7 676 642.8 676C600 676 557 676 514.2 676C471.3 676 428.7 676 385.8 676C343 676 300 676 257.2 676C214.3 676 171.7 676 128.8 676C86 676 43 676 21.5 676L0 676Z" fill="#3f5768"></path>
    <path d="M0 642L21.5 642C43 642 86 642 128.8 643.7C171.7 645.3 214.3 648.7 257.2 650.8C300 653 343 654 385.8 655.3C428.7 656.7 471.3 658.3 514.2 658.5C557 658.7 600 657.3 642.8 657.2C685.7 657 728.3 658 771.2 655.8C814 653.7 857 648.3 878.5 645.7L900 643L900 676L878.5 676C857 676 814 676 771.2 676C728.3 676 685.7 676 642.8 676C600 676 557 676 514.2 676C471.3 676 428.7 676 385.8 676C343 676 300 676 257.2 676C214.3 676 171.7 676 128.8 676C86 676 43 676 21.5 676L0 676Z" fill="#393e46"></path></svg>