<svg id="visual" viewBox="0 0 900 600" width="900" height="600" xmlns="http://www.w3.org/2000/svg" xmlns:xlink="http://www.w3.org/1999/xlink" version="1.1"><path d="M0 489L21.5 491.5C43 494 86 499 128.8 494.5C171.7 490 214.3 476 257.2 475.2C300 474.3 343 486.7 385.8 487C428.7 487.3 471.3 475.7 514.2 469.2C557 462.7 600 461.3 642.8 459.3C685.7 457.3 728.3 454.7 771.2 455.5C814 456.3 857 460.7 878.5 462.8L900 465L900 601L878.5 601C857 601 814 601 771.2 601C728.3 601 685.7 601 642.8 601C600 601 557 601 514.2 601C471.3 601 428.7 601 385.8 601C343 601 300 601 257.2 601C214.3 601 171.7 601 128.8 601C86 601 43 601 21.5 601L0 601Z" fill="#00adb5"></path><path d="M0 506L21.5 506.2C43 506.3 86 506.7 128.8 503.3C171.7 500 214.3 493 257.2 493.2C300 493.3 343 500.7 385.8 503.2C428.7 505.7 471.3 503.3 514.2 501.3C557 499.3 600 497.7 642.8 494.8C685.7 492 728.3 488 771.2 487.2C814 486.3 857 488.7 878.5 489.8L900 491L900 601L878.5 601C857 601 814 601 771.2 601C728.3 601 685.7 601 642.8 601C600 601 557 601 514.2 601C471.3 601 428.7 601 385.8 601C343 601 300 601 257.2 601C214.3 601 171.7 601 128.8 601C86 601 43 601 21.5 601L0 601Z" fill="#278fa2"></path><path d="M0 531L21.5 529.3C43 527.7 86 524.3 128.8 526.2C171.7 528 214.3 535 257.2 535.2C300 535.3 343 528.7 385.8 527.7C428.7 526.7 471.3 531.3 514.2 529.7C557 528 600 520 642.8 518.3C685.7 516.7 728.3 521.3 771.2 525.7C814 530 857 534 878.5 536L900 538L900 601L878.5 601C857 601 814 601 771.2 601C728.3 601 685.7 601 642.8 601C600 601 557 601 514.2 601C471.3 601 428.7 601 385.8 601C343 601 300 601 257.2 601C214.3 601 171.7 601 128.8 601C86 601 43 601 21.5 601L0 601Z" fill="#3a7288"></path><path d="M0 536L21.5 536C43 536 86 536 128.8 535.8C171.7 535.7 214.3 535.3 257.2 536C300 536.7 343 538.3 385.8 537.7C428.7 537 471.3 534 514.2 535.2C557 536.3 600 541.7 642.8 545.5C685.7 549.3 728.3 551.7 771.2 554.5C814 557.3 857 560.7 878.5 562.3L900 564L900 601L878.5 601C857 601 814 601 771.2 601C728.3 601 685.7 601 642.8 601C600 601 557 601 514.2 601C471.3 601 428.7 601 385.8 601C343 601 300 601 257.2 601C214.3 601 171.7 601 128.8 601C86 601 43 601 21.5 601L0 601Z" fill="#3f5768"></path><path d="M0 580L21.5 580.5C43 581 86 582 128.8 582.3C171.7 582.7 214.3 582.3 257.2 578.7C300 575 343 568 385.8 565.7C428.7 563.3 471.3 565.7 514.2 568.7C557 571.7 600 575.3 642.8 576.8C685.7 578.3 728.3 577.7 771.2 573.8C814 570 857 563 878.5 559.5L900 556L900 601L878.5 601C857 601 814 601 771.2 601C728.3 601 685.7 601 642.8 601C600 601 557 601 514.2 601C471.3 601 428.7 601 385.8 601C343 601 300 601 257.2 601C214.3 601 171.7 601 128.8 601C86 601 43 601 21.5 601L0 601Z" fill="#393e46"></path></svg>