<svg id="visual" viewBox="0 0 900 300" width="900" height="300" xmlns="http://www.w3.org/2000/svg" xmlns:xlink="http://www.w3.org/1999/xlink" version="1.1"><rect x="0" y="0" width="900" height="300" fill="#EEEEEE"></rect><path d="M0 192L21.5 195.3C43 198.7 86 205.3 128.8 209C171.7 212.7 214.3 213.3 257.2 210.8C300 208.3 343 202.7 385.8 200C428.7 197.3 471.3 197.7 514.2 197.8C557 198 600 198 642.8 194.8C685.7 191.7 728.3 185.3 771.2 182.5C814 179.7 857 180.3 878.5 180.7L900 181L900 301L878.5 301C857 301 814 301 771.2 301C728.3 301 685.7 301 642.8 301C600 301 557 301 514.2 301C471.3 301 428.7 301 385.8 301C343 301 300 301 257.2 301C214.3 301 171.7 301 128.8 301C86 301 43 301 21.5 301L0 301Z" fill="#00adb5"></path><path d="M0 207L21.5 211.3C43 215.7 86 224.3 128.8 229.3C171.7 234.3 214.3 235.7 257.2 232.3C300 229 343 221 385.8 219C428.7 217 471.3 221 514.2 224.2C557 227.3 600 229.7 642.8 225C685.7 220.3 728.3 208.7 771.2 206.3C814 204 857 211 878.5 214.5L900 218L900 301L878.5 301C857 301 814 301 771.2 301C728.3 301 685.7 301 642.8 301C600 301 557 301 514.2 301C471.3 301 428.7 301 385.8 301C343 301 300 301 257.2 301C214.3 301 171.7 301 128.8 301C86 301 43 301 21.5 301L0 301Z" fill="#278fa2"></path><path d="M0 232L21.5 235.7C43 239.3 86 246.7 128.8 247.8C171.7 249 214.3 244 257.2 244.2C300 244.3 343 249.7 385.8 247.3C428.7 245 471.3 235 514.2 231.3C557 227.7 600 230.3 642.8 230.5C685.7 230.7 728.3 228.3 771.2 231.2C814 234 857 242 878.5 246L900 250L900 301L878.5 301C857 301 814 301 771.2 301C728.3 301 685.7 301 642.8 301C600 301 557 301 514.2 301C471.3 301 428.7 301 385.8 301C343 301 300 301 257.2 301C214.3 301 171.7 301 128.8 301C86 301 43 301 21.5 301L0 301Z" fill="#3a7288"></path><path d="M0 264L21.5 263.8C43 263.7 86 263.3 128.8 262C171.7 260.7 214.3 258.3 257.2 256.5C300 254.7 343 253.3 385.8 252.2C428.7 251 471.3 250 514.2 249.7C557 249.3 600 249.7 642.8 252.8C685.7 256 728.3 262 771.2 262C814 262 857 256 878.5 253L900 250L900 301L878.5 301C857 301 814 301 771.2 301C728.3 301 685.7 301 642.8 301C600 301 557 301 514.2 301C471.3 301 428.7 301 385.8 301C343 301 300 301 257.2 301C214.3 301 171.7 301 128.8 301C86 301 43 301 21.5 301L0 301Z" fill="#3f5768"></path><path d="M0 280L21.5 279C43 278 86 276 128.8 275.5C171.7 275 214.3 276 257.2 276C300 276 343 275 385.8 273.7C428.7 272.3 471.3 270.7 514.2 269.5C557 268.3 600 267.7 642.8 268.2C685.7 268.7 728.3 270.3 771.2 270.8C814 271.3 857 270.7 878.5 270.3L900 270L900 301L878.5 301C857 301 814 301 771.2 301C728.3 301 685.7 301 642.8 301C600 301 557 301 514.2 301C471.3 301 428.7 301 385.8 301C343 301 300 301 257.2 301C214.3 301 171.7 301 128.8 301C86 301 43 301 21.5 301L0 301Z" fill="#393e46"></path></svg>