<svg id="visual" viewBox="0 0 675 900" width="675" height="900" xmlns="http://www.w3.org/2000/svg" xmlns:xlink="http://www.w3.org/1999/xlink" version="1.1"><path d="M0 488L16 507.3C32 526.7 64 565.3 96.2 574C128.3 582.7 160.7 561.3 192.8 544.7C225 528 257 516 289.2 509.3C321.3 502.7 353.7 501.3 385.8 493.7C418 486 450 472 482.2 464C514.3 456 546.7 454 578.8 471.5C611 489 643 526 659 544.5L675 563L675 901L659 901C643 901 611 901 578.8 901C546.7 901 514.3 901 482.2 901C450 901 418 901 385.8 901C353.7 901 321.3 901 289.2 901C257 901 225 901 192.8 901C160.7 901 128.3 901 96.2 901C64 901 32 901 16 901L0 901Z" fill="#00adb5"></path><path d="M0 615L16 613.7C32 612.3 64 609.7 96.2 610.3C128.3 611 160.7 615 192.8 623.8C225 632.7 257 646.3 289.2 636.3C321.3 626.3 353.7 592.7 385.8 576.7C418 560.7 450 562.3 482.2 562.2C514.3 562 546.7 560 578.8 565C611 570 643 582 659 588L675 594L675 901L659 901C643 901 611 901 578.8 901C546.7 901 514.3 901 482.2 901C450 901 418 901 385.8 901C353.7 901 321.3 901 289.2 901C257 901 225 901 192.8 901C160.7 901 128.3 901 96.2 901C64 901 32 901 16 901L0 901Z" fill="#278fa2"></path><path d="M0 661L16 656.2C32 651.3 64 641.7 96.2 649.5C128.3 657.3 160.7 682.7 192.8 694C225 705.3 257 702.7 289.2 690.8C321.3 679 353.7 658 385.8 650.3C418 642.7 450 648.3 482.2 649.7C514.3 651 546.7 648 578.8 659.2C611 670.3 643 695.7 659 708.3L675 721L675 901L659 901C643 901 611 901 578.8 901C546.7 901 514.3 901 482.2 901C450 901 418 901 385.8 901C353.7 901 321.3 901 289.2 901C257 901 225 901 192.8 901C160.7 901 128.3 901 96.2 901C64 901 32 901 16 901L0 901Z" fill="#3a7288"></path><path d="M0 717L16 714.8C32 712.7 64 708.3 96.2 720.2C128.3 732 160.7 760 192.8 773.2C225 786.3 257 784.7 289.2 777C321.3 769.3 353.7 755.7 385.8 756.8C418 758 450 774 482.2 771.3C514.3 768.7 546.7 747.3 578.8 742.8C611 738.3 643 750.7 659 756.8L675 763L675 901L659 901C643 901 611 901 578.8 901C546.7 901 514.3 901 482.2 901C450 901 418 901 385.8 901C353.7 901 321.3 901 289.2 901C257 901 225 901 192.8 901C160.7 901 128.3 901 96.2 901C64 901 32 901 16 901L0 901Z" fill="#3f5768"></path><path d="M0 802L16 798.8C32 795.7 64 789.3 96.2 792.5C128.3 795.7 160.7 808.3 192.8 815.3C225 822.3 257 823.7 289.2 824.2C321.3 824.7 353.7 824.3 385.8 825.7C418 827 450 830 482.2 832.8C514.3 835.7 546.7 838.3 578.8 828.5C611 818.7 643 796.3 659 785.2L675 774L675 901L659 901C643 901 611 901 578.8 901C546.7 901 514.3 901 482.2 901C450 901 418 901 385.8 901C353.7 901 321.3 901 289.2 901C257 901 225 901 192.8 901C160.7 901 128.3 901 96.2 901C64 901 32 901 16 901L0 901Z" fill="#393e46"></path></svg>