<svg width="29" height="70" viewBox="0 0 29 70" fill="none" xmlns="http://www.w3.org/2000/svg">
<path d="M4.71667 50.9766L0 55.6899L14.1433 69.8332L28.2867 55.6899L23.57 50.9766L14.1433 60.4066L4.71667 50.9766Z" fill="#EEEEEE"/>
<path d="M23.57 18.8567L28.2867 14.1433L14.1433 0L0 14.1433L4.71667 18.8567L14.1433 9.43L23.57 18.8567Z" fill="#EEEEEE"/>
<path fill-rule="evenodd" clip-rule="evenodd" d="M14.1433 24.9165C16.7955 24.9165 19.339 25.9701 21.2144 27.8454C23.0897 29.7208 24.1433 32.2643 24.1433 34.9165C24.1433 37.5687 23.0897 40.1122 21.2144 41.9876C19.339 43.8629 16.7955 44.9165 14.1433 44.9165C11.4911 44.9165 8.94761 43.8629 7.07224 41.9876C5.19688 40.1122 4.14331 37.5687 4.14331 34.9165C4.14331 32.2643 5.19688 29.7208 7.07224 27.8454C8.94761 25.9701 11.4911 24.9165 14.1433 24.9165ZM14.1433 31.5832C15.0274 31.5832 15.8752 31.9344 16.5003 32.5595C17.1255 33.1846 17.4766 34.0324 17.4766 34.9165C17.4766 35.8006 17.1255 36.6484 16.5003 37.2735C15.8752 37.8986 15.0274 38.2498 14.1433 38.2498C13.2593 38.2498 12.4114 37.8986 11.7863 37.2735C11.1612 36.6484 10.81 35.8006 10.81 34.9165C10.81 34.0324 11.1612 33.1846 11.7863 32.5595C12.4114 31.9344 13.2593 31.5832 14.1433 31.5832Z" fill="#EEEEEE"/>
</svg>
