<svg id="visual" viewBox="0 0 900 100" width="900" height="100" xmlns="http://www.w3.org/2000/svg" xmlns:xlink="http://www.w3.org/1999/xlink" version="1.1"><path d="M0 38L21.5 36.3C43 34.7 86 31.3 128.8 35.3C171.7 39.3 214.3 50.7 257.2 56.5C300 62.3 343 62.7 385.8 61.2C428.7 59.7 471.3 56.3 514.2 53.7C557 51 600 49 642.8 49.5C685.7 50 728.3 53 771.2 50.2C814 47.3 857 38.7 878.5 34.3L900 30L900 0L878.5 0C857 0 814 0 771.2 0C728.3 0 685.7 0 642.8 0C600 0 557 0 514.2 0C471.3 0 428.7 0 385.8 0C343 0 300 0 257.2 0C214.3 0 171.7 0 128.8 0C86 0 43 0 21.5 0L0 0Z" fill="#222831" stroke-linecap="round" stroke-linejoin="miter"></path></svg>