<svg id="visual" viewBox="0 0 675 900" width="675" height="900" xmlns="http://www.w3.org/2000/svg" xmlns:xlink="http://www.w3.org/1999/xlink" version="1.1"><path d="M0 173L16 165.7C32 158.3 64 143.7 96.2 161.7C128.3 179.7 160.7 230.3 192.8 256.8C225 283.3 257 285.7 289.2 278.8C321.3 272 353.7 256 385.8 244.2C418 232.3 450 224.7 482.2 227.2C514.3 229.7 546.7 242.3 578.8 228.8C611 215.3 643 175.7 659 155.8L675 136L675 0L659 0C643 0 611 0 578.8 0C546.7 0 514.3 0 482.2 0C450 0 418 0 385.8 0C353.7 0 321.3 0 289.2 0C257 0 225 0 192.8 0C160.7 0 128.3 0 96.2 0C64 0 32 0 16 0L0 0Z" fill="#222831" stroke-linecap="round" stroke-linejoin="miter"></path></svg>