<svg id="visual" viewBox="0 0 900 600" width="900" height="600" xmlns="http://www.w3.org/2000/svg" xmlns:xlink="http://www.w3.org/1999/xlink" version="1.1"><path d="M0 22L21.5 21C43 20 86 18 128.8 20.5C171.7 23 214.3 30 257.2 33.5C300 37 343 37 385.8 36C428.7 35 471.3 33 514.2 31.5C557 30 600 29 642.8 29.3C685.7 29.7 728.3 31.3 771.2 29.5C814 27.7 857 22.3 878.5 19.7L900 17L900 0L878.5 0C857 0 814 0 771.2 0C728.3 0 685.7 0 642.8 0C600 0 557 0 514.2 0C471.3 0 428.7 0 385.8 0C343 0 300 0 257.2 0C214.3 0 171.7 0 128.8 0C86 0 43 0 21.5 0L0 0Z" fill="#222831" stroke-linecap="round" stroke-linejoin="miter"></path></svg>