<svg id="visual" viewBox="0 0 900 600" width="900" height="600" xmlns="http://www.w3.org/2000/svg" xmlns:xlink="http://www.w3.org/1999/xlink" version="1.1"><path d="M0 115L21.5 110C43 105 86 95 128.8 107C171.7 119 214.3 153 257.2 170.7C300 188.3 343 189.7 385.8 185.2C428.7 180.7 471.3 170.3 514.2 162.5C557 154.7 600 149.3 642.8 151C685.7 152.7 728.3 161.3 771.2 152.5C814 143.7 857 117.3 878.5 104.2L900 91L900 0L878.5 0C857 0 814 0 771.2 0C728.3 0 685.7 0 642.8 0C600 0 557 0 514.2 0C471.3 0 428.7 0 385.8 0C343 0 300 0 257.2 0C214.3 0 171.7 0 128.8 0C86 0 43 0 21.5 0L0 0Z" fill="#222831" stroke-linecap="round" stroke-linejoin="miter"></path></svg>